<svg xmlns="http://www.w3.org/2000/svg" viewBox="0 0 1200 900" width="1200" height="900" role="img"><rect width="1200" height="900" fill="#0F1613"/><rect x="250" y="120" width="290" height="600" rx="26" fill="#0A0F0D" stroke="#ECEFEC" stroke-opacity="0.12"/><rect x="362" y="136" width="66" height="7" rx="3.5" fill="#ECEFEC" opacity="0.14"/><text x="278" y="194" fill="#ECEFEC" font-family="Inter, Helvetica, Arial, sans-serif" font-size="9" letter-spacing="3.0" font-weight="500" text-anchor="start">CALDER &amp; ROE</text><line x1="278" y1="214" x2="512" y2="214" stroke="#ECEFEC" stroke-opacity="0.10"/><text x="278" y="296" fill="#ECEFEC" font-family="Cormorant Garamond, Georgia, 'Times New Roman', serif" font-size="46" font-weight="300" font-style="normal" text-anchor="start">Patient</text><text x="278" y="342" fill="#ECEFEC" font-family="Cormorant Garamond, Georgia, 'Times New Roman', serif" font-size="46" font-weight="300" font-style="italic" text-anchor="start">capital</text><rect x="278" y="386" width="234" height="180" fill="#18211D"/><rect x="278" y="594" width="234" height="44" fill="#9BB5A4" opacity="0.92"/><text x="395" y="621" fill="#0A0F0D" font-family="Inter, Helvetica, Arial, sans-serif" font-size="9" letter-spacing="3.0" font-weight="500" text-anchor="middle">ENQUIRE</text><rect x="360" y="698" width="70" height="3" rx="1.5" fill="#ECEFEC" opacity="0.22"/><rect x="660" y="180" width="290" height="600" rx="26" fill="#0A0F0D" stroke="#ECEFEC" stroke-opacity="0.12"/><rect x="772" y="196" width="66" height="7" rx="3.5" fill="#ECEFEC" opacity="0.14"/><text x="688" y="254" fill="#ECEFEC" font-family="Inter, Helvetica, Arial, sans-serif" font-size="9" letter-spacing="3.0" font-weight="500" text-anchor="start">CALDER &amp; ROE</text><line x1="688" y1="274" x2="922" y2="274" stroke="#ECEFEC" stroke-opacity="0.10"/><rect x="688" y="300" width="108" height="128" fill="#18211D"/><rect x="814" y="300" width="108" height="128" fill="#0F1613" stroke="#ECEFEC" stroke-opacity="0.08"/><rect x="688" y="450" width="108" height="128" fill="#18211D"/><rect x="814" y="450" width="108" height="128" fill="#0F1613" stroke="#ECEFEC" stroke-opacity="0.08"/><rect x="688" y="600" width="108" height="128" fill="#18211D"/><rect x="814" y="600" width="108" height="128" fill="#0F1613" stroke="#ECEFEC" stroke-opacity="0.08"/><rect x="770" y="758" width="70" height="3" rx="1.5" fill="#ECEFEC" opacity="0.22"/></svg>