<svg xmlns="http://www.w3.org/2000/svg" viewBox="0 0 1200 900" width="1200" height="900" role="img"><rect width="1200" height="900" fill="#0C0B0A"/><rect x="80" y="120" width="190" height="240" fill="#0C0B0A" stroke="#EFE9E0" stroke-opacity="0.14"/><text x="80" y="394" fill="#8A8279" font-family="Inter, Helvetica, Arial, sans-serif" font-size="10" letter-spacing="3.0" font-weight="500" text-anchor="start">PAPER</text><text x="80" y="420" fill="#EFE9E0" font-family="Inter, Helvetica, Arial, sans-serif" font-size="11" letter-spacing="1.8" font-weight="400" text-anchor="start">#0C0B0A</text><rect x="294" y="120" width="190" height="240" fill="#EFE9E0" stroke="#EFE9E0" stroke-opacity="0.14"/><text x="294" y="394" fill="#8A8279" font-family="Inter, Helvetica, Arial, sans-serif" font-size="10" letter-spacing="3.0" font-weight="500" text-anchor="start">INK</text><text x="294" y="420" fill="#EFE9E0" font-family="Inter, Helvetica, Arial, sans-serif" font-size="11" letter-spacing="1.8" font-weight="400" text-anchor="start">#EFE9E0</text><rect x="508" y="120" width="190" height="240" fill="#C9A87C" stroke="#EFE9E0" stroke-opacity="0.14"/><text x="508" y="394" fill="#8A8279" font-family="Inter, Helvetica, Arial, sans-serif" font-size="10" letter-spacing="3.0" font-weight="500" text-anchor="start">ACCENT</text><text x="508" y="420" fill="#EFE9E0" font-family="Inter, Helvetica, Arial, sans-serif" font-size="11" letter-spacing="1.8" font-weight="400" text-anchor="start">#C9A87C</text><rect x="722" y="120" width="190" height="240" fill="#171512" stroke="#EFE9E0" stroke-opacity="0.14"/><text x="722" y="394" fill="#8A8279" font-family="Inter, Helvetica, Arial, sans-serif" font-size="10" letter-spacing="3.0" font-weight="500" text-anchor="start">BAND</text><text x="722" y="420" fill="#EFE9E0" font-family="Inter, Helvetica, Arial, sans-serif" font-size="11" letter-spacing="1.8" font-weight="400" text-anchor="start">#171512</text><rect x="936" y="120" width="190" height="240" fill="#241F1A" stroke="#EFE9E0" stroke-opacity="0.14"/><text x="936" y="394" fill="#8A8279" font-family="Inter, Helvetica, Arial, sans-serif" font-size="10" letter-spacing="3.0" font-weight="500" text-anchor="start">MUTED</text><text x="936" y="420" fill="#EFE9E0" font-family="Inter, Helvetica, Arial, sans-serif" font-size="11" letter-spacing="1.8" font-weight="400" text-anchor="start">#241F1A</text><line x1="80" y1="486" x2="1120" y2="486" stroke="#EFE9E0" stroke-opacity="0.14"/><text x="80" y="532" fill="#C9A87C" font-family="Inter, Helvetica, Arial, sans-serif" font-size="11" letter-spacing="4.0" font-weight="500" text-anchor="start">LAYOUT GRID — 12 COLUMN</text><rect x="80" y="566" width="62" height="250" fill="#C9A87C" opacity="0.10"/><rect x="167" y="566" width="62" height="250" fill="#C9A87C" opacity="0.10"/><rect x="254" y="566" width="62" height="250" fill="#C9A87C" opacity="0.10"/><rect x="341" y="566" width="62" height="250" fill="#C9A87C" opacity="0.10"/><rect x="428" y="566" width="62" height="250" fill="#C9A87C" opacity="0.10"/><rect x="515" y="566" width="62" height="250" fill="#C9A87C" opacity="0.10"/><rect x="602" y="566" width="62" height="250" fill="#C9A87C" opacity="0.10"/><rect x="689" y="566" width="62" height="250" fill="#C9A87C" opacity="0.10"/><rect x="776" y="566" width="62" height="250" fill="#C9A87C" opacity="0.10"/><rect x="863" y="566" width="62" height="250" fill="#C9A87C" opacity="0.10"/><rect x="950" y="566" width="62" height="250" fill="#C9A87C" opacity="0.10"/><rect x="1037" y="566" width="62" height="250" fill="#C9A87C" opacity="0.10"/><line x1="80" y1="566" x2="1120" y2="566" stroke="#EFE9E0" stroke-opacity="0.07"/><line x1="80" y1="628" x2="1120" y2="628" stroke="#EFE9E0" stroke-opacity="0.07"/><line x1="80" y1="690" x2="1120" y2="690" stroke="#EFE9E0" stroke-opacity="0.07"/><line x1="80" y1="752" x2="1120" y2="752" stroke="#EFE9E0" stroke-opacity="0.07"/><line x1="80" y1="814" x2="1120" y2="814" stroke="#EFE9E0" stroke-opacity="0.07"/></svg>